<?xml version="1.0" encoding="utf-8" standalone="no"?>
<!DOCTYPE svg PUBLIC "-//W3C//DTD SVG 1.1//EN"
  "http://www.w3.org/Graphics/SVG/1.1/DTD/svg11.dtd">
<svg xmlns:xlink="http://www.w3.org/1999/xlink" width="720pt" height="720pt" viewBox="0 0 720 720" xmlns="http://www.w3.org/2000/svg" version="1.1">
 <metadata>
  <rdf:RDF xmlns:dc="http://purl.org/dc/elements/1.1/" xmlns:cc="http://creativecommons.org/ns#" xmlns:rdf="http://www.w3.org/1999/02/22-rdf-syntax-ns#">
   <cc:Work>
    <dc:type rdf:resource="http://purl.org/dc/dcmitype/StillImage"/>
    <dc:date>2026-01-04T19:06:55.114006</dc:date>
    <dc:format>image/svg+xml</dc:format>
    <dc:creator>
     <cc:Agent>
      <dc:title>Matplotlib v3.10.7, https://matplotlib.org/</dc:title>
     </cc:Agent>
    </dc:creator>
   </cc:Work>
  </rdf:RDF>
 </metadata>
 <defs>
  <style type="text/css">*{stroke-linejoin: round; stroke-linecap: butt}</style>
 </defs>
 <g id="figure_1">
  <g id="patch_1">
   <path d="M 0 720 
L 720 720 
L 720 0 
L 0 0 
L 0 720 
z
" style="fill: none"/>
  </g>
  <g id="axes_1">
   <g id="patch_2">
    <path d="M 550.68 388.76 
C 550.68 357.986425 544.618277 327.512084 532.841739 299.081008 
C 521.065202 270.649932 503.802875 244.815033 482.042671 223.054829 
C 460.282467 201.294625 434.447568 184.032298 406.016492 172.255761 
C 377.585416 160.479223 347.111075 154.4175 316.3375 154.4175 
C 285.563925 154.4175 255.089584 160.479223 226.658508 172.255761 
C 198.227432 184.032298 172.392533 201.294625 150.632329 223.054829 
C 128.872125 244.815033 111.609798 270.649932 99.833261 299.081008 
C 88.056723 327.512084 81.995 357.986425 81.995 388.76 
C 81.995 419.533575 88.056723 450.007916 99.833261 478.438992 
C 111.609798 506.870068 128.872125 532.704967 150.632329 554.465171 
C 172.392533 576.225375 198.227432 593.487702 226.658508 605.264239 
C 255.089584 617.040777 285.563925 623.1025 316.3375 623.1025 
C 347.111075 623.1025 377.585416 617.040777 406.016492 605.264239 
C 434.447568 593.487702 460.282467 576.225375 482.042671 554.465171 
C 503.802875 532.704967 521.065202 506.870068 532.841739 478.438992 
C 544.618277 450.007916 550.68 419.533575 550.68 388.76 
M 316.3375 388.76 
C 316.3375 388.76 316.3375 388.76 316.3375 388.76 
C 316.3375 388.76 316.3375 388.76 316.3375 388.76 
C 316.3375 388.76 316.3375 388.76 316.3375 388.76 
C 316.3375 388.76 316.3375 388.76 316.3375 388.76 
C 316.3375 388.76 316.3375 388.76 316.3375 388.76 
C 316.3375 388.76 316.3375 388.76 316.3375 388.76 
C 316.3375 388.76 316.3375 388.76 316.3375 388.76 
C 316.3375 388.76 316.3375 388.76 316.3375 388.76 
C 316.3375 388.76 316.3375 388.76 316.3375 388.76 
C 316.3375 388.76 316.3375 388.76 316.3375 388.76 
C 316.3375 388.76 316.3375 388.76 316.3375 388.76 
C 316.3375 388.76 316.3375 388.76 316.3375 388.76 
C 316.3375 388.76 316.3375 388.76 316.3375 388.76 
C 316.3375 388.76 316.3375 388.76 316.3375 388.76 
C 316.3375 388.76 316.3375 388.76 316.3375 388.76 
C 316.3375 388.76 316.3375 388.76 316.3375 388.76 
L 316.3375 388.76 
z
" style="fill: none"/>
   </g>
   <g id="patch_3">
    <path d="M 316.3375 298.021646 
L 492.398468 388.76 
L 316.3375 498.297081 
L 213.546487 388.76 
z
" clip-path="url(#p18dd4cdf1d)" style="fill: #ff0055; opacity: 0.15; stroke: #ff0055; stroke-linejoin: miter"/>
   </g>
   <g id="patch_4">
    <path d="M 316.3375 271.913566 
L 465.212299 388.76 
L 316.3375 533.469019 
L 161.141181 388.76 
z
" clip-path="url(#p18dd4cdf1d)" style="fill: #00aaff; opacity: 0.15; stroke: #00aaff; stroke-linejoin: miter"/>
   </g>
   <g id="patch_5">
    <path d="M 316.3375 277.924464 
L 483.353208 388.76 
L 316.3375 499.393497 
L 209.201409 388.76 
z
" clip-path="url(#p18dd4cdf1d)" style="fill: #00ffcc; opacity: 0.15; stroke: #00ffcc; stroke-linejoin: miter"/>
   </g>
   <g id="matplotlib.axis_1">
    <g id="xtick_1">
     <g id="line2d_1">
      <path d="M 316.3375 388.76 
L 316.3375 154.4175 
" clip-path="url(#p18dd4cdf1d)" style="fill: none; stroke: #ffffff; stroke-width: 0.8; stroke-linecap: square"/>
     </g>
     <g id="text_1">
      <!-- Energy (Tempo) -->
      <g style="fill: #ffffff" transform="translate(263.123125 143.675313) scale(0.12 -0.12)">
       <defs>
        <path id="DejaVuSans-Bold-45" d="M 588 4666 
L 3834 4666 
L 3834 3756 
L 1791 3756 
L 1791 2888 
L 3713 2888 
L 3713 1978 
L 1791 1978 
L 1791 909 
L 3903 909 
L 3903 0 
L 588 0 
L 588 4666 
z
" transform="scale(0.015625)"/>
        <path id="DejaVuSans-Bold-6e" d="M 4056 2131 
L 4056 0 
L 2931 0 
L 2931 347 
L 2931 1631 
Q 2931 2084 2911 2256 
Q 2891 2428 2841 2509 
Q 2775 2619 2662 2680 
Q 2550 2741 2406 2741 
Q 2056 2741 1856 2470 
Q 1656 2200 1656 1722 
L 1656 0 
L 538 0 
L 538 3500 
L 1656 3500 
L 1656 2988 
Q 1909 3294 2193 3439 
Q 2478 3584 2822 3584 
Q 3428 3584 3742 3212 
Q 4056 2841 4056 2131 
z
" transform="scale(0.015625)"/>
        <path id="DejaVuSans-Bold-65" d="M 4031 1759 
L 4031 1441 
L 1416 1441 
Q 1456 1047 1700 850 
Q 1944 653 2381 653 
Q 2734 653 3104 758 
Q 3475 863 3866 1075 
L 3866 213 
Q 3469 63 3072 -14 
Q 2675 -91 2278 -91 
Q 1328 -91 801 392 
Q 275 875 275 1747 
Q 275 2603 792 3093 
Q 1309 3584 2216 3584 
Q 3041 3584 3536 3087 
Q 4031 2591 4031 1759 
z
M 2881 2131 
Q 2881 2450 2695 2645 
Q 2509 2841 2209 2841 
Q 1884 2841 1681 2658 
Q 1478 2475 1428 2131 
L 2881 2131 
z
" transform="scale(0.015625)"/>
        <path id="DejaVuSans-Bold-72" d="M 3138 2547 
Q 2991 2616 2845 2648 
Q 2700 2681 2553 2681 
Q 2122 2681 1889 2404 
Q 1656 2128 1656 1613 
L 1656 0 
L 538 0 
L 538 3500 
L 1656 3500 
L 1656 2925 
Q 1872 3269 2151 3426 
Q 2431 3584 2822 3584 
Q 2878 3584 2943 3579 
Q 3009 3575 3134 3559 
L 3138 2547 
z
" transform="scale(0.015625)"/>
        <path id="DejaVuSans-Bold-67" d="M 2919 594 
Q 2688 288 2409 144 
Q 2131 0 1766 0 
Q 1125 0 706 504 
Q 288 1009 288 1791 
Q 288 2575 706 3076 
Q 1125 3578 1766 3578 
Q 2131 3578 2409 3434 
Q 2688 3291 2919 2981 
L 2919 3500 
L 4044 3500 
L 4044 353 
Q 4044 -491 3511 -936 
Q 2978 -1381 1966 -1381 
Q 1638 -1381 1331 -1331 
Q 1025 -1281 716 -1178 
L 716 -306 
Q 1009 -475 1290 -558 
Q 1572 -641 1856 -641 
Q 2406 -641 2662 -400 
Q 2919 -159 2919 353 
L 2919 594 
z
M 2181 2772 
Q 1834 2772 1640 2515 
Q 1447 2259 1447 1791 
Q 1447 1309 1634 1061 
Q 1822 813 2181 813 
Q 2531 813 2725 1069 
Q 2919 1325 2919 1791 
Q 2919 2259 2725 2515 
Q 2531 2772 2181 2772 
z
" transform="scale(0.015625)"/>
        <path id="DejaVuSans-Bold-79" d="M 78 3500 
L 1197 3500 
L 2138 1125 
L 2938 3500 
L 4056 3500 
L 2584 -331 
Q 2363 -916 2067 -1148 
Q 1772 -1381 1288 -1381 
L 641 -1381 
L 641 -647 
L 991 -647 
Q 1275 -647 1404 -556 
Q 1534 -466 1606 -231 
L 1638 -134 
L 78 3500 
z
" transform="scale(0.015625)"/>
        <path id="DejaVuSans-Bold-20" transform="scale(0.015625)"/>
        <path id="DejaVuSans-Bold-28" d="M 2413 -844 
L 1484 -844 
Q 1006 -72 778 623 
Q 550 1319 550 2003 
Q 550 2688 779 3389 
Q 1009 4091 1484 4856 
L 2413 4856 
Q 2013 4116 1813 3408 
Q 1613 2700 1613 2009 
Q 1613 1319 1811 609 
Q 2009 -100 2413 -844 
z
" transform="scale(0.015625)"/>
        <path id="DejaVuSans-Bold-54" d="M 31 4666 
L 4331 4666 
L 4331 3756 
L 2784 3756 
L 2784 0 
L 1581 0 
L 1581 3756 
L 31 3756 
L 31 4666 
z
" transform="scale(0.015625)"/>
        <path id="DejaVuSans-Bold-6d" d="M 3781 2919 
Q 3994 3244 4286 3414 
Q 4578 3584 4928 3584 
Q 5531 3584 5847 3212 
Q 6163 2841 6163 2131 
L 6163 0 
L 5038 0 
L 5038 1825 
Q 5041 1866 5042 1909 
Q 5044 1953 5044 2034 
Q 5044 2406 4934 2573 
Q 4825 2741 4581 2741 
Q 4263 2741 4089 2478 
Q 3916 2216 3909 1719 
L 3909 0 
L 2784 0 
L 2784 1825 
Q 2784 2406 2684 2573 
Q 2584 2741 2328 2741 
Q 2006 2741 1831 2477 
Q 1656 2213 1656 1722 
L 1656 0 
L 531 0 
L 531 3500 
L 1656 3500 
L 1656 2988 
Q 1863 3284 2130 3434 
Q 2397 3584 2719 3584 
Q 3081 3584 3359 3409 
Q 3638 3234 3781 2919 
z
" transform="scale(0.015625)"/>
        <path id="DejaVuSans-Bold-70" d="M 1656 506 
L 1656 -1331 
L 538 -1331 
L 538 3500 
L 1656 3500 
L 1656 2988 
Q 1888 3294 2169 3439 
Q 2450 3584 2816 3584 
Q 3463 3584 3878 3070 
Q 4294 2556 4294 1747 
Q 4294 938 3878 423 
Q 3463 -91 2816 -91 
Q 2450 -91 2169 54 
Q 1888 200 1656 506 
z
M 2400 2772 
Q 2041 2772 1848 2508 
Q 1656 2244 1656 1747 
Q 1656 1250 1848 986 
Q 2041 722 2400 722 
Q 2759 722 2948 984 
Q 3138 1247 3138 1747 
Q 3138 2247 2948 2509 
Q 2759 2772 2400 2772 
z
" transform="scale(0.015625)"/>
        <path id="DejaVuSans-Bold-6f" d="M 2203 2784 
Q 1831 2784 1636 2517 
Q 1441 2250 1441 1747 
Q 1441 1244 1636 976 
Q 1831 709 2203 709 
Q 2569 709 2762 976 
Q 2956 1244 2956 1747 
Q 2956 2250 2762 2517 
Q 2569 2784 2203 2784 
z
M 2203 3584 
Q 3106 3584 3614 3096 
Q 4122 2609 4122 1747 
Q 4122 884 3614 396 
Q 3106 -91 2203 -91 
Q 1297 -91 786 396 
Q 275 884 275 1747 
Q 275 2609 786 3096 
Q 1297 3584 2203 3584 
z
" transform="scale(0.015625)"/>
        <path id="DejaVuSans-Bold-29" d="M 513 -844 
Q 913 -100 1113 609 
Q 1313 1319 1313 2009 
Q 1313 2700 1113 3408 
Q 913 4116 513 4856 
L 1441 4856 
Q 1916 4091 2145 3389 
Q 2375 2688 2375 2003 
Q 2375 1319 2147 623 
Q 1919 -72 1441 -844 
L 513 -844 
z
" transform="scale(0.015625)"/>
       </defs>
       <use xlink:href="#DejaVuSans-Bold-45"/>
       <use xlink:href="#DejaVuSans-Bold-6e" transform="translate(68.310547 0)"/>
       <use xlink:href="#DejaVuSans-Bold-65" transform="translate(139.501953 0)"/>
       <use xlink:href="#DejaVuSans-Bold-72" transform="translate(207.324219 0)"/>
       <use xlink:href="#DejaVuSans-Bold-67" transform="translate(256.640625 0)"/>
       <use xlink:href="#DejaVuSans-Bold-79" transform="translate(328.222656 0)"/>
       <use xlink:href="#DejaVuSans-Bold-20" transform="translate(393.408203 0)"/>
       <use xlink:href="#DejaVuSans-Bold-28" transform="translate(428.222656 0)"/>
       <use xlink:href="#DejaVuSans-Bold-54" transform="translate(473.925781 0)"/>
       <use xlink:href="#DejaVuSans-Bold-65" transform="translate(528.888672 0)"/>
       <use xlink:href="#DejaVuSans-Bold-6d" transform="translate(596.710938 0)"/>
       <use xlink:href="#DejaVuSans-Bold-70" transform="translate(700.910156 0)"/>
       <use xlink:href="#DejaVuSans-Bold-6f" transform="translate(772.492188 0)"/>
       <use xlink:href="#DejaVuSans-Bold-29" transform="translate(841.193359 0)"/>
      </g>
     </g>
    </g>
    <g id="xtick_2">
     <g id="line2d_2">
      <path d="M 316.3375 388.76 
L 550.68 388.76 
" clip-path="url(#p18dd4cdf1d)" style="fill: none; stroke: #ffffff; stroke-width: 0.8; stroke-linecap: square"/>
     </g>
     <g id="text_2">
      <!-- Acousticness -->
      <g style="fill: #ffffff" transform="translate(520.550937 392.07125) scale(0.12 -0.12)">
       <defs>
        <path id="DejaVuSans-Bold-41" d="M 3419 850 
L 1538 850 
L 1241 0 
L 31 0 
L 1759 4666 
L 3194 4666 
L 4922 0 
L 3713 0 
L 3419 850 
z
M 1838 1716 
L 3116 1716 
L 2478 3572 
L 1838 1716 
z
" transform="scale(0.015625)"/>
        <path id="DejaVuSans-Bold-63" d="M 3366 3391 
L 3366 2478 
Q 3138 2634 2908 2709 
Q 2678 2784 2431 2784 
Q 1963 2784 1702 2511 
Q 1441 2238 1441 1747 
Q 1441 1256 1702 982 
Q 1963 709 2431 709 
Q 2694 709 2930 787 
Q 3166 866 3366 1019 
L 3366 103 
Q 3103 6 2833 -42 
Q 2563 -91 2291 -91 
Q 1344 -91 809 395 
Q 275 881 275 1747 
Q 275 2613 809 3098 
Q 1344 3584 2291 3584 
Q 2566 3584 2833 3536 
Q 3100 3488 3366 3391 
z
" transform="scale(0.015625)"/>
        <path id="DejaVuSans-Bold-75" d="M 500 1363 
L 500 3500 
L 1625 3500 
L 1625 3150 
Q 1625 2866 1622 2436 
Q 1619 2006 1619 1863 
Q 1619 1441 1641 1255 
Q 1663 1069 1716 984 
Q 1784 875 1895 815 
Q 2006 756 2150 756 
Q 2500 756 2700 1025 
Q 2900 1294 2900 1772 
L 2900 3500 
L 4019 3500 
L 4019 0 
L 2900 0 
L 2900 506 
Q 2647 200 2364 54 
Q 2081 -91 1741 -91 
Q 1134 -91 817 281 
Q 500 653 500 1363 
z
" transform="scale(0.015625)"/>
        <path id="DejaVuSans-Bold-73" d="M 3272 3391 
L 3272 2541 
Q 2913 2691 2578 2766 
Q 2244 2841 1947 2841 
Q 1628 2841 1473 2761 
Q 1319 2681 1319 2516 
Q 1319 2381 1436 2309 
Q 1553 2238 1856 2203 
L 2053 2175 
Q 2913 2066 3209 1816 
Q 3506 1566 3506 1031 
Q 3506 472 3093 190 
Q 2681 -91 1863 -91 
Q 1516 -91 1145 -36 
Q 775 19 384 128 
L 384 978 
Q 719 816 1070 734 
Q 1422 653 1784 653 
Q 2113 653 2278 743 
Q 2444 834 2444 1013 
Q 2444 1163 2330 1236 
Q 2216 1309 1875 1350 
L 1678 1375 
Q 931 1469 631 1722 
Q 331 1975 331 2491 
Q 331 3047 712 3315 
Q 1094 3584 1881 3584 
Q 2191 3584 2531 3537 
Q 2872 3491 3272 3391 
z
" transform="scale(0.015625)"/>
        <path id="DejaVuSans-Bold-74" d="M 1759 4494 
L 1759 3500 
L 2913 3500 
L 2913 2700 
L 1759 2700 
L 1759 1216 
Q 1759 972 1856 886 
Q 1953 800 2241 800 
L 2816 800 
L 2816 0 
L 1856 0 
Q 1194 0 917 276 
Q 641 553 641 1216 
L 641 2700 
L 84 2700 
L 84 3500 
L 641 3500 
L 641 4494 
L 1759 4494 
z
" transform="scale(0.015625)"/>
        <path id="DejaVuSans-Bold-69" d="M 538 3500 
L 1656 3500 
L 1656 0 
L 538 0 
L 538 3500 
z
M 538 4863 
L 1656 4863 
L 1656 3950 
L 538 3950 
L 538 4863 
z
" transform="scale(0.015625)"/>
       </defs>
       <use xlink:href="#DejaVuSans-Bold-41"/>
       <use xlink:href="#DejaVuSans-Bold-63" transform="translate(77.392578 0)"/>
       <use xlink:href="#DejaVuSans-Bold-6f" transform="translate(136.669922 0)"/>
       <use xlink:href="#DejaVuSans-Bold-75" transform="translate(205.371094 0)"/>
       <use xlink:href="#DejaVuSans-Bold-73" transform="translate(276.5625 0)"/>
       <use xlink:href="#DejaVuSans-Bold-74" transform="translate(336.083984 0)"/>
       <use xlink:href="#DejaVuSans-Bold-69" transform="translate(383.886719 0)"/>
       <use xlink:href="#DejaVuSans-Bold-63" transform="translate(418.164062 0)"/>
       <use xlink:href="#DejaVuSans-Bold-6e" transform="translate(477.441406 0)"/>
       <use xlink:href="#DejaVuSans-Bold-65" transform="translate(548.632812 0)"/>
       <use xlink:href="#DejaVuSans-Bold-73" transform="translate(616.455078 0)"/>
       <use xlink:href="#DejaVuSans-Bold-73" transform="translate(675.976562 0)"/>
      </g>
     </g>
    </g>
    <g id="xtick_3">
     <g id="line2d_3">
      <path d="M 316.3375 388.76 
L 316.3375 623.1025 
" clip-path="url(#p18dd4cdf1d)" style="fill: none; stroke: #ffffff; stroke-width: 0.8; stroke-linecap: square"/>
     </g>
     <g id="text_3">
      <!-- Musical Brightness -->
      <g style="fill: #ffffff" transform="translate(252.210625 640.366875) scale(0.12 -0.12)">
       <defs>
        <path id="DejaVuSans-Bold-4d" d="M 588 4666 
L 2119 4666 
L 3181 2169 
L 4250 4666 
L 5778 4666 
L 5778 0 
L 4641 0 
L 4641 3413 
L 3566 897 
L 2803 897 
L 1728 3413 
L 1728 0 
L 588 0 
L 588 4666 
z
" transform="scale(0.015625)"/>
        <path id="DejaVuSans-Bold-61" d="M 2106 1575 
Q 1756 1575 1579 1456 
Q 1403 1338 1403 1106 
Q 1403 894 1545 773 
Q 1688 653 1941 653 
Q 2256 653 2472 879 
Q 2688 1106 2688 1447 
L 2688 1575 
L 2106 1575 
z
M 3816 1997 
L 3816 0 
L 2688 0 
L 2688 519 
Q 2463 200 2181 54 
Q 1900 -91 1497 -91 
Q 953 -91 614 226 
Q 275 544 275 1050 
Q 275 1666 698 1953 
Q 1122 2241 2028 2241 
L 2688 2241 
L 2688 2328 
Q 2688 2594 2478 2717 
Q 2269 2841 1825 2841 
Q 1466 2841 1156 2769 
Q 847 2697 581 2553 
L 581 3406 
Q 941 3494 1303 3539 
Q 1666 3584 2028 3584 
Q 2975 3584 3395 3211 
Q 3816 2838 3816 1997 
z
" transform="scale(0.015625)"/>
        <path id="DejaVuSans-Bold-6c" d="M 538 4863 
L 1656 4863 
L 1656 0 
L 538 0 
L 538 4863 
z
" transform="scale(0.015625)"/>
        <path id="DejaVuSans-Bold-42" d="M 2456 2859 
Q 2741 2859 2887 2984 
Q 3034 3109 3034 3353 
Q 3034 3594 2887 3720 
Q 2741 3847 2456 3847 
L 1791 3847 
L 1791 2859 
L 2456 2859 
z
M 2497 819 
Q 2859 819 3042 972 
Q 3225 1125 3225 1434 
Q 3225 1738 3044 1889 
Q 2863 2041 2497 2041 
L 1791 2041 
L 1791 819 
L 2497 819 
z
M 3616 2497 
Q 4003 2384 4215 2081 
Q 4428 1778 4428 1338 
Q 4428 663 3972 331 
Q 3516 0 2584 0 
L 588 0 
L 588 4666 
L 2394 4666 
Q 3366 4666 3802 4372 
Q 4238 4078 4238 3431 
Q 4238 3091 4078 2852 
Q 3919 2613 3616 2497 
z
" transform="scale(0.015625)"/>
        <path id="DejaVuSans-Bold-68" d="M 4056 2131 
L 4056 0 
L 2931 0 
L 2931 347 
L 2931 1625 
Q 2931 2084 2911 2256 
Q 2891 2428 2841 2509 
Q 2775 2619 2662 2680 
Q 2550 2741 2406 2741 
Q 2056 2741 1856 2470 
Q 1656 2200 1656 1722 
L 1656 0 
L 538 0 
L 538 4863 
L 1656 4863 
L 1656 2988 
Q 1909 3294 2193 3439 
Q 2478 3584 2822 3584 
Q 3428 3584 3742 3212 
Q 4056 2841 4056 2131 
z
" transform="scale(0.015625)"/>
       </defs>
       <use xlink:href="#DejaVuSans-Bold-4d"/>
       <use xlink:href="#DejaVuSans-Bold-75" transform="translate(99.511719 0)"/>
       <use xlink:href="#DejaVuSans-Bold-73" transform="translate(170.703125 0)"/>
       <use xlink:href="#DejaVuSans-Bold-69" transform="translate(230.224609 0)"/>
       <use xlink:href="#DejaVuSans-Bold-63" transform="translate(264.501953 0)"/>
       <use xlink:href="#DejaVuSans-Bold-61" transform="translate(323.779297 0)"/>
       <use xlink:href="#DejaVuSans-Bold-6c" transform="translate(391.259766 0)"/>
       <use xlink:href="#DejaVuSans-Bold-20" transform="translate(425.537109 0)"/>
       <use xlink:href="#DejaVuSans-Bold-42" transform="translate(460.351562 0)"/>
       <use xlink:href="#DejaVuSans-Bold-72" transform="translate(536.572266 0)"/>
       <use xlink:href="#DejaVuSans-Bold-69" transform="translate(585.888672 0)"/>
       <use xlink:href="#DejaVuSans-Bold-67" transform="translate(620.166016 0)"/>
       <use xlink:href="#DejaVuSans-Bold-68" transform="translate(691.748047 0)"/>
       <use xlink:href="#DejaVuSans-Bold-74" transform="translate(762.939453 0)"/>
       <use xlink:href="#DejaVuSans-Bold-6e" transform="translate(810.742188 0)"/>
       <use xlink:href="#DejaVuSans-Bold-65" transform="translate(881.933594 0)"/>
       <use xlink:href="#DejaVuSans-Bold-73" transform="translate(949.755859 0)"/>
       <use xlink:href="#DejaVuSans-Bold-73" transform="translate(1009.277344 0)"/>
      </g>
     </g>
    </g>
    <g id="xtick_4">
     <g id="line2d_4">
      <path d="M 316.3375 388.76 
L 81.995 388.76 
" clip-path="url(#p18dd4cdf1d)" style="fill: none; stroke: #ffffff; stroke-width: 0.8; stroke-linecap: square"/>
     </g>
     <g id="text_4">
      <!-- Lyrical Sentiment -->
      <g style="fill: #ffffff" transform="translate(8.850938 392.024375) scale(0.12 -0.12)">
       <defs>
        <path id="DejaVuSans-Bold-4c" d="M 588 4666 
L 1791 4666 
L 1791 909 
L 3903 909 
L 3903 0 
L 588 0 
L 588 4666 
z
" transform="scale(0.015625)"/>
        <path id="DejaVuSans-Bold-53" d="M 3834 4519 
L 3834 3531 
Q 3450 3703 3084 3790 
Q 2719 3878 2394 3878 
Q 1963 3878 1756 3759 
Q 1550 3641 1550 3391 
Q 1550 3203 1689 3098 
Q 1828 2994 2194 2919 
L 2706 2816 
Q 3484 2659 3812 2340 
Q 4141 2022 4141 1434 
Q 4141 663 3683 286 
Q 3225 -91 2284 -91 
Q 1841 -91 1394 -6 
Q 947 78 500 244 
L 500 1259 
Q 947 1022 1364 901 
Q 1781 781 2169 781 
Q 2563 781 2772 912 
Q 2981 1044 2981 1288 
Q 2981 1506 2839 1625 
Q 2697 1744 2272 1838 
L 1806 1941 
Q 1106 2091 782 2419 
Q 459 2747 459 3303 
Q 459 4000 909 4375 
Q 1359 4750 2203 4750 
Q 2588 4750 2994 4692 
Q 3400 4634 3834 4519 
z
" transform="scale(0.015625)"/>
       </defs>
       <use xlink:href="#DejaVuSans-Bold-4c"/>
       <use xlink:href="#DejaVuSans-Bold-79" transform="translate(56.970703 0)"/>
       <use xlink:href="#DejaVuSans-Bold-72" transform="translate(122.15625 0)"/>
       <use xlink:href="#DejaVuSans-Bold-69" transform="translate(171.472656 0)"/>
       <use xlink:href="#DejaVuSans-Bold-63" transform="translate(205.75 0)"/>
       <use xlink:href="#DejaVuSans-Bold-61" transform="translate(265.027344 0)"/>
       <use xlink:href="#DejaVuSans-Bold-6c" transform="translate(332.507812 0)"/>
       <use xlink:href="#DejaVuSans-Bold-20" transform="translate(366.785156 0)"/>
       <use xlink:href="#DejaVuSans-Bold-53" transform="translate(401.599609 0)"/>
       <use xlink:href="#DejaVuSans-Bold-65" transform="translate(473.621094 0)"/>
       <use xlink:href="#DejaVuSans-Bold-6e" transform="translate(541.443359 0)"/>
       <use xlink:href="#DejaVuSans-Bold-74" transform="translate(612.634766 0)"/>
       <use xlink:href="#DejaVuSans-Bold-69" transform="translate(660.4375 0)"/>
       <use xlink:href="#DejaVuSans-Bold-6d" transform="translate(694.714844 0)"/>
       <use xlink:href="#DejaVuSans-Bold-65" transform="translate(798.914062 0)"/>
       <use xlink:href="#DejaVuSans-Bold-6e" transform="translate(866.736328 0)"/>
       <use xlink:href="#DejaVuSans-Bold-74" transform="translate(937.927734 0)"/>
      </g>
     </g>
    </g>
   </g>
   <g id="matplotlib.axis_2">
    <g id="ytick_1">
     <g id="line2d_5">
      <path d="M 316.3375 341.8915 
C 322.492215 341.8915 328.587083 343.103845 334.273298 345.459152 
C 339.959514 347.81446 345.126493 351.266925 349.478534 355.618966 
C 353.830575 359.971007 357.28304 365.137986 359.638348 370.824202 
C 361.993655 376.510417 363.206 382.605285 363.206 388.76 
C 363.206 394.914715 361.993655 401.009583 359.638348 406.695798 
C 357.28304 412.382014 353.830575 417.548993 349.478534 421.901034 
C 345.126493 426.253075 339.959514 429.70554 334.273298 432.060848 
C 328.587083 434.416155 322.492215 435.6285 316.3375 435.6285 
C 310.182785 435.6285 304.087917 434.416155 298.401702 432.060848 
C 292.715486 429.70554 287.548507 426.253075 283.196466 421.901034 
C 278.844425 417.548993 275.39196 412.382014 273.036652 406.695798 
C 270.681345 401.009583 269.469 394.914715 269.469 388.76 
C 269.469 382.605285 270.681345 376.510417 273.036652 370.824202 
C 275.39196 365.137986 278.844425 359.971007 283.196466 355.618966 
C 287.548507 351.266925 292.715486 347.81446 298.401702 345.459152 
C 304.087917 343.103845 310.182785 341.8915 316.3375 341.8915 
" clip-path="url(#p18dd4cdf1d)" style="fill: none; stroke: #ffffff; stroke-width: 0.8; stroke-linecap: square"/>
     </g>
    </g>
    <g id="ytick_2">
     <g id="line2d_6">
      <path d="M 316.3375 295.023 
C 328.64693 295.023 340.836666 297.447689 352.209097 302.158304 
C 363.581527 306.868919 373.915487 313.77385 382.619568 322.477932 
C 391.32365 331.182013 398.228581 341.515973 402.939196 352.888403 
C 407.649811 364.260834 410.0745 376.45057 410.0745 388.76 
C 410.0745 401.06943 407.649811 413.259166 402.939196 424.631597 
C 398.228581 436.004027 391.32365 446.337987 382.619568 455.042068 
C 373.915487 463.74615 363.581527 470.651081 352.209097 475.361696 
C 340.836666 480.072311 328.64693 482.497 316.3375 482.497 
C 304.02807 482.497 291.838334 480.072311 280.465903 475.361696 
C 269.093473 470.651081 258.759513 463.74615 250.055432 455.042068 
C 241.35135 446.337987 234.446419 436.004027 229.735804 424.631597 
C 225.025189 413.259166 222.6005 401.06943 222.6005 388.76 
C 222.6005 376.45057 225.025189 364.260834 229.735804 352.888403 
C 234.446419 341.515973 241.35135 331.182013 250.055432 322.477932 
C 258.759513 313.77385 269.093473 306.868919 280.465903 302.158304 
C 291.838334 297.447689 304.02807 295.023 316.3375 295.023 
" clip-path="url(#p18dd4cdf1d)" style="fill: none; stroke: #ffffff; stroke-width: 0.8; stroke-linecap: square"/>
     </g>
    </g>
    <g id="ytick_3">
     <g id="line2d_7">
      <path d="M 316.3375 248.1545 
C 334.801645 248.1545 353.08625 251.791534 370.144895 258.857456 
C 387.203541 265.923379 402.70448 276.280775 415.760603 289.336897 
C 428.816725 302.39302 439.174121 317.893959 446.240044 334.952605 
C 453.305966 352.01125 456.943 370.295855 456.943 388.76 
C 456.943 407.224145 453.305966 425.50875 446.240044 442.567395 
C 439.174121 459.626041 428.816725 475.12698 415.760603 488.183103 
C 402.70448 501.239225 387.203541 511.596621 370.144895 518.662544 
C 353.08625 525.728466 334.801645 529.3655 316.3375 529.3655 
C 297.873355 529.3655 279.58875 525.728466 262.530105 518.662544 
C 245.471459 511.596621 229.97052 501.239225 216.914397 488.183103 
C 203.858275 475.12698 193.500879 459.626041 186.434956 442.567395 
C 179.369034 425.50875 175.732 407.224145 175.732 388.76 
C 175.732 370.295855 179.369034 352.01125 186.434956 334.952605 
C 193.500879 317.893959 203.858275 302.39302 216.914397 289.336897 
C 229.97052 276.280775 245.471459 265.923379 262.530105 258.857456 
C 279.58875 251.791534 297.873355 248.1545 316.3375 248.1545 
" clip-path="url(#p18dd4cdf1d)" style="fill: none; stroke: #ffffff; stroke-width: 0.8; stroke-linecap: square"/>
     </g>
    </g>
    <g id="ytick_4">
     <g id="line2d_8">
      <path d="M 316.3375 201.286 
C 340.95636 201.286 365.335833 206.135379 388.080694 215.556609 
C 410.825555 224.977838 431.493474 238.7877 448.901637 256.195863 
C 466.3098 273.604026 480.119662 294.271945 489.540891 317.016806 
C 498.962121 339.761667 503.8115 364.14114 503.8115 388.76 
C 503.8115 413.37886 498.962121 437.758333 489.540891 460.503194 
C 480.119662 483.248055 466.3098 503.915974 448.901637 521.324137 
C 431.493474 538.7323 410.825555 552.542162 388.080694 561.963391 
C 365.335833 571.384621 340.95636 576.234 316.3375 576.234 
C 291.71864 576.234 267.339167 571.384621 244.594306 561.963391 
C 221.849445 552.542162 201.181526 538.7323 183.773363 521.324137 
C 166.3652 503.915974 152.555338 483.248055 143.134109 460.503194 
C 133.712879 437.758333 128.8635 413.37886 128.8635 388.76 
C 128.8635 364.14114 133.712879 339.761667 143.134109 317.016806 
C 152.555338 294.271945 166.3652 273.604026 183.773363 256.195863 
C 201.181526 238.7877 221.849445 224.977838 244.594306 215.556609 
C 267.339167 206.135379 291.71864 201.286 316.3375 201.286 
" clip-path="url(#p18dd4cdf1d)" style="fill: none; stroke: #ffffff; stroke-width: 0.8; stroke-linecap: square"/>
     </g>
    </g>
    <g id="ytick_5">
     <g id="line2d_9">
      <path d="M 316.3375 154.4175 
C 347.111075 154.4175 377.585416 160.479223 406.016492 172.255761 
C 434.447568 184.032298 460.282467 201.294625 482.042671 223.054829 
C 503.802875 244.815033 521.065202 270.649932 532.841739 299.081008 
C 544.618277 327.512084 550.68 357.986425 550.68 388.76 
C 550.68 419.533575 544.618277 450.007916 532.841739 478.438992 
C 521.065202 506.870068 503.802875 532.704967 482.042671 554.465171 
C 460.282467 576.225375 434.447568 593.487702 406.016492 605.264239 
C 377.585416 617.040777 347.111075 623.1025 316.3375 623.1025 
C 285.563925 623.1025 255.089584 617.040777 226.658508 605.264239 
C 198.227432 593.487702 172.392533 576.225375 150.632329 554.465171 
C 128.872125 532.704967 111.609798 506.870068 99.833261 478.438992 
C 88.056723 450.007916 81.995 419.533575 81.995 388.76 
C 81.995 357.986425 88.056723 327.512084 99.833261 299.081008 
C 111.609798 270.649932 128.872125 244.815033 150.632329 223.054829 
C 172.392533 201.294625 198.227432 184.032298 226.658508 172.255761 
C 255.089584 160.479223 285.563925 154.4175 316.3375 154.4175 
" clip-path="url(#p18dd4cdf1d)" style="fill: none; stroke: #ffffff; stroke-width: 0.8; stroke-linecap: square"/>
     </g>
    </g>
   </g>
   <g id="line2d_10">
    <path d="M 316.3375 298.021646 
L 492.398468 388.76 
L 316.3375 498.297081 
L 213.546487 388.76 
L 316.3375 298.021646 
" clip-path="url(#p18dd4cdf1d)" style="fill: none; stroke: #ff0055; stroke-width: 3; stroke-linecap: square"/>
   </g>
   <g id="line2d_11">
    <path d="M 316.3375 271.913566 
L 465.212299 388.76 
L 316.3375 533.469019 
L 161.141181 388.76 
L 316.3375 271.913566 
" clip-path="url(#p18dd4cdf1d)" style="fill: none; stroke: #00aaff; stroke-width: 3; stroke-linecap: square"/>
   </g>
   <g id="line2d_12">
    <path d="M 316.3375 277.924464 
L 483.353208 388.76 
L 316.3375 499.393497 
L 209.201409 388.76 
L 316.3375 277.924464 
" clip-path="url(#p18dd4cdf1d)" style="fill: none; stroke: #00ffcc; stroke-width: 3; stroke-linecap: square"/>
   </g>
   <g id="patch_6">
    <path d="M 316.3375 154.4175 
C 285.563925 154.4175 255.089584 160.479223 226.658508 172.255761 
C 198.227432 184.032298 172.392533 201.294625 150.632329 223.054829 
C 128.872125 244.815033 111.609798 270.649932 99.833261 299.081008 
C 88.056723 327.512084 81.995 357.986425 81.995 388.76 
C 81.995 419.533575 88.056723 450.007916 99.833261 478.438992 
C 111.609798 506.870068 128.872125 532.704967 150.632329 554.465171 
C 172.392533 576.225375 198.227432 593.487702 226.658508 605.264239 
C 255.089584 617.040777 285.563925 623.1025 316.3375 623.1025 
C 347.111075 623.1025 377.585416 617.040777 406.016492 605.264239 
C 434.447568 593.487702 460.282467 576.225375 482.042671 554.465171 
C 503.802875 532.704967 521.065202 506.870068 532.841739 478.438992 
C 544.618277 450.007916 550.68 419.533575 550.68 388.76 
C 550.68 357.986425 544.618277 327.512084 532.841739 299.081008 
C 521.065202 270.649932 503.802875 244.815033 482.042671 223.054829 
C 460.282467 201.294625 434.447568 184.032298 406.016492 172.255761 
C 377.585416 160.479223 347.111075 154.4175 316.3375 154.4175 
" style="fill: none; stroke: #ffffff; stroke-width: 0.8; stroke-linejoin: miter; stroke-linecap: square"/>
   </g>
   <g id="text_5">
    <!-- The Trilogy DNA Profile -->
    <g style="fill: #ffffff" transform="translate(172.509062 101.549) scale(0.22 -0.22)">
     <defs>
      <path id="DejaVuSans-Bold-44" d="M 1791 3756 
L 1791 909 
L 2222 909 
Q 2959 909 3348 1275 
Q 3738 1641 3738 2338 
Q 3738 3031 3350 3393 
Q 2963 3756 2222 3756 
L 1791 3756 
z
M 588 4666 
L 1856 4666 
Q 2919 4666 3439 4514 
Q 3959 4363 4331 4000 
Q 4659 3684 4818 3271 
Q 4978 2859 4978 2338 
Q 4978 1809 4818 1395 
Q 4659 981 4331 666 
Q 3956 303 3431 151 
Q 2906 0 1856 0 
L 588 0 
L 588 4666 
z
" transform="scale(0.015625)"/>
      <path id="DejaVuSans-Bold-4e" d="M 588 4666 
L 1931 4666 
L 3628 1466 
L 3628 4666 
L 4769 4666 
L 4769 0 
L 3425 0 
L 1728 3200 
L 1728 0 
L 588 0 
L 588 4666 
z
" transform="scale(0.015625)"/>
      <path id="DejaVuSans-Bold-50" d="M 588 4666 
L 2584 4666 
Q 3475 4666 3951 4270 
Q 4428 3875 4428 3144 
Q 4428 2409 3951 2014 
Q 3475 1619 2584 1619 
L 1791 1619 
L 1791 0 
L 588 0 
L 588 4666 
z
M 1791 3794 
L 1791 2491 
L 2456 2491 
Q 2806 2491 2997 2661 
Q 3188 2831 3188 3144 
Q 3188 3456 2997 3625 
Q 2806 3794 2456 3794 
L 1791 3794 
z
" transform="scale(0.015625)"/>
      <path id="DejaVuSans-Bold-66" d="M 2841 4863 
L 2841 4128 
L 2222 4128 
Q 1984 4128 1890 4042 
Q 1797 3956 1797 3744 
L 1797 3500 
L 2753 3500 
L 2753 2700 
L 1797 2700 
L 1797 0 
L 678 0 
L 678 2700 
L 122 2700 
L 122 3500 
L 678 3500 
L 678 3744 
Q 678 4316 997 4589 
Q 1316 4863 1984 4863 
L 2841 4863 
z
" transform="scale(0.015625)"/>
     </defs>
     <use xlink:href="#DejaVuSans-Bold-54"/>
     <use xlink:href="#DejaVuSans-Bold-68" transform="translate(68.212891 0)"/>
     <use xlink:href="#DejaVuSans-Bold-65" transform="translate(139.404297 0)"/>
     <use xlink:href="#DejaVuSans-Bold-20" transform="translate(207.226562 0)"/>
     <use xlink:href="#DejaVuSans-Bold-54" transform="translate(242.041016 0)"/>
     <use xlink:href="#DejaVuSans-Bold-72" transform="translate(299.253906 0)"/>
     <use xlink:href="#DejaVuSans-Bold-69" transform="translate(348.570312 0)"/>
     <use xlink:href="#DejaVuSans-Bold-6c" transform="translate(382.847656 0)"/>
     <use xlink:href="#DejaVuSans-Bold-6f" transform="translate(417.125 0)"/>
     <use xlink:href="#DejaVuSans-Bold-67" transform="translate(485.826172 0)"/>
     <use xlink:href="#DejaVuSans-Bold-79" transform="translate(557.408203 0)"/>
     <use xlink:href="#DejaVuSans-Bold-20" transform="translate(622.59375 0)"/>
     <use xlink:href="#DejaVuSans-Bold-44" transform="translate(657.408203 0)"/>
     <use xlink:href="#DejaVuSans-Bold-4e" transform="translate(740.416016 0)"/>
     <use xlink:href="#DejaVuSans-Bold-41" transform="translate(824.107422 0)"/>
     <use xlink:href="#DejaVuSans-Bold-20" transform="translate(901.5 0)"/>
     <use xlink:href="#DejaVuSans-Bold-50" transform="translate(936.314453 0)"/>
     <use xlink:href="#DejaVuSans-Bold-72" transform="translate(1009.605469 0)"/>
     <use xlink:href="#DejaVuSans-Bold-6f" transform="translate(1058.921875 0)"/>
     <use xlink:href="#DejaVuSans-Bold-66" transform="translate(1127.623047 0)"/>
     <use xlink:href="#DejaVuSans-Bold-69" transform="translate(1171.128906 0)"/>
     <use xlink:href="#DejaVuSans-Bold-6c" transform="translate(1205.40625 0)"/>
     <use xlink:href="#DejaVuSans-Bold-65" transform="translate(1239.683594 0)"/>
    </g>
   </g>
   <g id="legend_1">
    <g id="patch_7">
     <path d="M 528.863625 169.99025 
L 682.8855 169.99025 
Q 685.2855 169.99025 685.2855 167.59025 
L 685.2855 115.949 
Q 685.2855 113.549 682.8855 113.549 
L 528.863625 113.549 
Q 526.463625 113.549 526.463625 115.949 
L 526.463625 167.59025 
Q 526.463625 169.99025 528.863625 169.99025 
z
" style="opacity: 0.8; stroke: #cccccc; stroke-linejoin: miter"/>
    </g>
    <g id="line2d_13">
     <path d="M 531.263625 123.267125 
L 543.263625 123.267125 
L 555.263625 123.267125 
" style="fill: none; stroke: #ff0055; stroke-width: 3; stroke-linecap: square"/>
    </g>
    <g id="text_6">
     <!-- After Hours -->
     <g style="fill: #ffffff" transform="translate(564.863625 127.467125) scale(0.12 -0.12)">
      <defs>
       <path id="DejaVuSans-41" d="M 2188 4044 
L 1331 1722 
L 3047 1722 
L 2188 4044 
z
M 1831 4666 
L 2547 4666 
L 4325 0 
L 3669 0 
L 3244 1197 
L 1141 1197 
L 716 0 
L 50 0 
L 1831 4666 
z
" transform="scale(0.015625)"/>
       <path id="DejaVuSans-66" d="M 2375 4863 
L 2375 4384 
L 1825 4384 
Q 1516 4384 1395 4259 
Q 1275 4134 1275 3809 
L 1275 3500 
L 2222 3500 
L 2222 3053 
L 1275 3053 
L 1275 0 
L 697 0 
L 697 3053 
L 147 3053 
L 147 3500 
L 697 3500 
L 697 3744 
Q 697 4328 969 4595 
Q 1241 4863 1831 4863 
L 2375 4863 
z
" transform="scale(0.015625)"/>
       <path id="DejaVuSans-74" d="M 1172 4494 
L 1172 3500 
L 2356 3500 
L 2356 3053 
L 1172 3053 
L 1172 1153 
Q 1172 725 1289 603 
Q 1406 481 1766 481 
L 2356 481 
L 2356 0 
L 1766 0 
Q 1100 0 847 248 
Q 594 497 594 1153 
L 594 3053 
L 172 3053 
L 172 3500 
L 594 3500 
L 594 4494 
L 1172 4494 
z
" transform="scale(0.015625)"/>
       <path id="DejaVuSans-65" d="M 3597 1894 
L 3597 1613 
L 953 1613 
Q 991 1019 1311 708 
Q 1631 397 2203 397 
Q 2534 397 2845 478 
Q 3156 559 3463 722 
L 3463 178 
Q 3153 47 2828 -22 
Q 2503 -91 2169 -91 
Q 1331 -91 842 396 
Q 353 884 353 1716 
Q 353 2575 817 3079 
Q 1281 3584 2069 3584 
Q 2775 3584 3186 3129 
Q 3597 2675 3597 1894 
z
M 3022 2063 
Q 3016 2534 2758 2815 
Q 2500 3097 2075 3097 
Q 1594 3097 1305 2825 
Q 1016 2553 972 2059 
L 3022 2063 
z
" transform="scale(0.015625)"/>
       <path id="DejaVuSans-72" d="M 2631 2963 
Q 2534 3019 2420 3045 
Q 2306 3072 2169 3072 
Q 1681 3072 1420 2755 
Q 1159 2438 1159 1844 
L 1159 0 
L 581 0 
L 581 3500 
L 1159 3500 
L 1159 2956 
Q 1341 3275 1631 3429 
Q 1922 3584 2338 3584 
Q 2397 3584 2469 3576 
Q 2541 3569 2628 3553 
L 2631 2963 
z
" transform="scale(0.015625)"/>
       <path id="DejaVuSans-20" transform="scale(0.015625)"/>
       <path id="DejaVuSans-48" d="M 628 4666 
L 1259 4666 
L 1259 2753 
L 3553 2753 
L 3553 4666 
L 4184 4666 
L 4184 0 
L 3553 0 
L 3553 2222 
L 1259 2222 
L 1259 0 
L 628 0 
L 628 4666 
z
" transform="scale(0.015625)"/>
       <path id="DejaVuSans-6f" d="M 1959 3097 
Q 1497 3097 1228 2736 
Q 959 2375 959 1747 
Q 959 1119 1226 758 
Q 1494 397 1959 397 
Q 2419 397 2687 759 
Q 2956 1122 2956 1747 
Q 2956 2369 2687 2733 
Q 2419 3097 1959 3097 
z
M 1959 3584 
Q 2709 3584 3137 3096 
Q 3566 2609 3566 1747 
Q 3566 888 3137 398 
Q 2709 -91 1959 -91 
Q 1206 -91 779 398 
Q 353 888 353 1747 
Q 353 2609 779 3096 
Q 1206 3584 1959 3584 
z
" transform="scale(0.015625)"/>
       <path id="DejaVuSans-75" d="M 544 1381 
L 544 3500 
L 1119 3500 
L 1119 1403 
Q 1119 906 1312 657 
Q 1506 409 1894 409 
Q 2359 409 2629 706 
Q 2900 1003 2900 1516 
L 2900 3500 
L 3475 3500 
L 3475 0 
L 2900 0 
L 2900 538 
Q 2691 219 2414 64 
Q 2138 -91 1772 -91 
Q 1169 -91 856 284 
Q 544 659 544 1381 
z
M 1991 3584 
L 1991 3584 
z
" transform="scale(0.015625)"/>
       <path id="DejaVuSans-73" d="M 2834 3397 
L 2834 2853 
Q 2591 2978 2328 3040 
Q 2066 3103 1784 3103 
Q 1356 3103 1142 2972 
Q 928 2841 928 2578 
Q 928 2378 1081 2264 
Q 1234 2150 1697 2047 
L 1894 2003 
Q 2506 1872 2764 1633 
Q 3022 1394 3022 966 
Q 3022 478 2636 193 
Q 2250 -91 1575 -91 
Q 1294 -91 989 -36 
Q 684 19 347 128 
L 347 722 
Q 666 556 975 473 
Q 1284 391 1588 391 
Q 1994 391 2212 530 
Q 2431 669 2431 922 
Q 2431 1156 2273 1281 
Q 2116 1406 1581 1522 
L 1381 1569 
Q 847 1681 609 1914 
Q 372 2147 372 2553 
Q 372 3047 722 3315 
Q 1072 3584 1716 3584 
Q 2034 3584 2315 3537 
Q 2597 3491 2834 3397 
z
" transform="scale(0.015625)"/>
      </defs>
      <use xlink:href="#DejaVuSans-41"/>
      <use xlink:href="#DejaVuSans-66" transform="translate(64.783203 0)"/>
      <use xlink:href="#DejaVuSans-74" transform="translate(98.238281 0)"/>
      <use xlink:href="#DejaVuSans-65" transform="translate(137.447266 0)"/>
      <use xlink:href="#DejaVuSans-72" transform="translate(198.970703 0)"/>
      <use xlink:href="#DejaVuSans-20" transform="translate(240.083984 0)"/>
      <use xlink:href="#DejaVuSans-48" transform="translate(271.871094 0)"/>
      <use xlink:href="#DejaVuSans-6f" transform="translate(347.066406 0)"/>
      <use xlink:href="#DejaVuSans-75" transform="translate(408.248047 0)"/>
      <use xlink:href="#DejaVuSans-72" transform="translate(471.626953 0)"/>
      <use xlink:href="#DejaVuSans-73" transform="translate(512.740234 0)"/>
     </g>
    </g>
    <g id="line2d_14">
     <path d="M 531.263625 140.880875 
L 543.263625 140.880875 
L 555.263625 140.880875 
" style="fill: none; stroke: #00aaff; stroke-width: 3; stroke-linecap: square"/>
    </g>
    <g id="text_7">
     <!-- Dawn FM -->
     <g style="fill: #ffffff" transform="translate(564.863625 145.080875) scale(0.12 -0.12)">
      <defs>
       <path id="DejaVuSans-44" d="M 1259 4147 
L 1259 519 
L 2022 519 
Q 2988 519 3436 956 
Q 3884 1394 3884 2338 
Q 3884 3275 3436 3711 
Q 2988 4147 2022 4147 
L 1259 4147 
z
M 628 4666 
L 1925 4666 
Q 3281 4666 3915 4102 
Q 4550 3538 4550 2338 
Q 4550 1131 3912 565 
Q 3275 0 1925 0 
L 628 0 
L 628 4666 
z
" transform="scale(0.015625)"/>
       <path id="DejaVuSans-61" d="M 2194 1759 
Q 1497 1759 1228 1600 
Q 959 1441 959 1056 
Q 959 750 1161 570 
Q 1363 391 1709 391 
Q 2188 391 2477 730 
Q 2766 1069 2766 1631 
L 2766 1759 
L 2194 1759 
z
M 3341 1997 
L 3341 0 
L 2766 0 
L 2766 531 
Q 2569 213 2275 61 
Q 1981 -91 1556 -91 
Q 1019 -91 701 211 
Q 384 513 384 1019 
Q 384 1609 779 1909 
Q 1175 2209 1959 2209 
L 2766 2209 
L 2766 2266 
Q 2766 2663 2505 2880 
Q 2244 3097 1772 3097 
Q 1472 3097 1187 3025 
Q 903 2953 641 2809 
L 641 3341 
Q 956 3463 1253 3523 
Q 1550 3584 1831 3584 
Q 2591 3584 2966 3190 
Q 3341 2797 3341 1997 
z
" transform="scale(0.015625)"/>
       <path id="DejaVuSans-77" d="M 269 3500 
L 844 3500 
L 1563 769 
L 2278 3500 
L 2956 3500 
L 3675 769 
L 4391 3500 
L 4966 3500 
L 4050 0 
L 3372 0 
L 2619 2869 
L 1863 0 
L 1184 0 
L 269 3500 
z
" transform="scale(0.015625)"/>
       <path id="DejaVuSans-6e" d="M 3513 2113 
L 3513 0 
L 2938 0 
L 2938 2094 
Q 2938 2591 2744 2837 
Q 2550 3084 2163 3084 
Q 1697 3084 1428 2787 
Q 1159 2491 1159 1978 
L 1159 0 
L 581 0 
L 581 3500 
L 1159 3500 
L 1159 2956 
Q 1366 3272 1645 3428 
Q 1925 3584 2291 3584 
Q 2894 3584 3203 3211 
Q 3513 2838 3513 2113 
z
" transform="scale(0.015625)"/>
       <path id="DejaVuSans-46" d="M 628 4666 
L 3309 4666 
L 3309 4134 
L 1259 4134 
L 1259 2759 
L 3109 2759 
L 3109 2228 
L 1259 2228 
L 1259 0 
L 628 0 
L 628 4666 
z
" transform="scale(0.015625)"/>
       <path id="DejaVuSans-4d" d="M 628 4666 
L 1569 4666 
L 2759 1491 
L 3956 4666 
L 4897 4666 
L 4897 0 
L 4281 0 
L 4281 4097 
L 3078 897 
L 2444 897 
L 1241 4097 
L 1241 0 
L 628 0 
L 628 4666 
z
" transform="scale(0.015625)"/>
      </defs>
      <use xlink:href="#DejaVuSans-44"/>
      <use xlink:href="#DejaVuSans-61" transform="translate(77.001953 0)"/>
      <use xlink:href="#DejaVuSans-77" transform="translate(138.28125 0)"/>
      <use xlink:href="#DejaVuSans-6e" transform="translate(220.068359 0)"/>
      <use xlink:href="#DejaVuSans-20" transform="translate(283.447266 0)"/>
      <use xlink:href="#DejaVuSans-46" transform="translate(315.234375 0)"/>
      <use xlink:href="#DejaVuSans-4d" transform="translate(372.753906 0)"/>
     </g>
    </g>
    <g id="line2d_15">
     <path d="M 531.263625 158.494625 
L 543.263625 158.494625 
L 555.263625 158.494625 
" style="fill: none; stroke: #00ffcc; stroke-width: 3; stroke-linecap: square"/>
    </g>
    <g id="text_8">
     <!-- Hurry Up Tomorrow -->
     <g style="fill: #ffffff" transform="translate(564.863625 162.694625) scale(0.12 -0.12)">
      <defs>
       <path id="DejaVuSans-79" d="M 2059 -325 
Q 1816 -950 1584 -1140 
Q 1353 -1331 966 -1331 
L 506 -1331 
L 506 -850 
L 844 -850 
Q 1081 -850 1212 -737 
Q 1344 -625 1503 -206 
L 1606 56 
L 191 3500 
L 800 3500 
L 1894 763 
L 2988 3500 
L 3597 3500 
L 2059 -325 
z
" transform="scale(0.015625)"/>
       <path id="DejaVuSans-55" d="M 556 4666 
L 1191 4666 
L 1191 1831 
Q 1191 1081 1462 751 
Q 1734 422 2344 422 
Q 2950 422 3222 751 
Q 3494 1081 3494 1831 
L 3494 4666 
L 4128 4666 
L 4128 1753 
Q 4128 841 3676 375 
Q 3225 -91 2344 -91 
Q 1459 -91 1007 375 
Q 556 841 556 1753 
L 556 4666 
z
" transform="scale(0.015625)"/>
       <path id="DejaVuSans-70" d="M 1159 525 
L 1159 -1331 
L 581 -1331 
L 581 3500 
L 1159 3500 
L 1159 2969 
Q 1341 3281 1617 3432 
Q 1894 3584 2278 3584 
Q 2916 3584 3314 3078 
Q 3713 2572 3713 1747 
Q 3713 922 3314 415 
Q 2916 -91 2278 -91 
Q 1894 -91 1617 61 
Q 1341 213 1159 525 
z
M 3116 1747 
Q 3116 2381 2855 2742 
Q 2594 3103 2138 3103 
Q 1681 3103 1420 2742 
Q 1159 2381 1159 1747 
Q 1159 1113 1420 752 
Q 1681 391 2138 391 
Q 2594 391 2855 752 
Q 3116 1113 3116 1747 
z
" transform="scale(0.015625)"/>
       <path id="DejaVuSans-54" d="M -19 4666 
L 3928 4666 
L 3928 4134 
L 2272 4134 
L 2272 0 
L 1638 0 
L 1638 4134 
L -19 4134 
L -19 4666 
z
" transform="scale(0.015625)"/>
       <path id="DejaVuSans-6d" d="M 3328 2828 
Q 3544 3216 3844 3400 
Q 4144 3584 4550 3584 
Q 5097 3584 5394 3201 
Q 5691 2819 5691 2113 
L 5691 0 
L 5113 0 
L 5113 2094 
Q 5113 2597 4934 2840 
Q 4756 3084 4391 3084 
Q 3944 3084 3684 2787 
Q 3425 2491 3425 1978 
L 3425 0 
L 2847 0 
L 2847 2094 
Q 2847 2600 2669 2842 
Q 2491 3084 2119 3084 
Q 1678 3084 1418 2786 
Q 1159 2488 1159 1978 
L 1159 0 
L 581 0 
L 581 3500 
L 1159 3500 
L 1159 2956 
Q 1356 3278 1631 3431 
Q 1906 3584 2284 3584 
Q 2666 3584 2933 3390 
Q 3200 3197 3328 2828 
z
" transform="scale(0.015625)"/>
      </defs>
      <use xlink:href="#DejaVuSans-48"/>
      <use xlink:href="#DejaVuSans-75" transform="translate(75.195312 0)"/>
      <use xlink:href="#DejaVuSans-72" transform="translate(138.574219 0)"/>
      <use xlink:href="#DejaVuSans-72" transform="translate(177.9375 0)"/>
      <use xlink:href="#DejaVuSans-79" transform="translate(219.050781 0)"/>
      <use xlink:href="#DejaVuSans-20" transform="translate(278.230469 0)"/>
      <use xlink:href="#DejaVuSans-55" transform="translate(310.017578 0)"/>
      <use xlink:href="#DejaVuSans-70" transform="translate(383.210938 0)"/>
      <use xlink:href="#DejaVuSans-20" transform="translate(446.6875 0)"/>
      <use xlink:href="#DejaVuSans-54" transform="translate(478.474609 0)"/>
      <use xlink:href="#DejaVuSans-6f" transform="translate(522.558594 0)"/>
      <use xlink:href="#DejaVuSans-6d" transform="translate(583.740234 0)"/>
      <use xlink:href="#DejaVuSans-6f" transform="translate(681.152344 0)"/>
      <use xlink:href="#DejaVuSans-72" transform="translate(742.333984 0)"/>
      <use xlink:href="#DejaVuSans-72" transform="translate(781.697266 0)"/>
      <use xlink:href="#DejaVuSans-6f" transform="translate(820.560547 0)"/>
      <use xlink:href="#DejaVuSans-77" transform="translate(881.742188 0)"/>
     </g>
    </g>
   </g>
  </g>
 </g>
 <defs>
  <clipPath id="p18dd4cdf1d">
   <path d="M 550.68 388.76 
C 550.68 357.986425 544.618277 327.512084 532.841739 299.081008 
C 521.065202 270.649932 503.802875 244.815033 482.042671 223.054829 
C 460.282467 201.294625 434.447568 184.032298 406.016492 172.255761 
C 377.585416 160.479223 347.111075 154.4175 316.3375 154.4175 
C 285.563925 154.4175 255.089584 160.479223 226.658508 172.255761 
C 198.227432 184.032298 172.392533 201.294625 150.632329 223.054829 
C 128.872125 244.815033 111.609798 270.649932 99.833261 299.081008 
C 88.056723 327.512084 81.995 357.986425 81.995 388.76 
C 81.995 419.533575 88.056723 450.007916 99.833261 478.438992 
C 111.609798 506.870068 128.872125 532.704967 150.632329 554.465171 
C 172.392533 576.225375 198.227432 593.487702 226.658508 605.264239 
C 255.089584 617.040777 285.563925 623.1025 316.3375 623.1025 
C 347.111075 623.1025 377.585416 617.040777 406.016492 605.264239 
C 434.447568 593.487702 460.282467 576.225375 482.042671 554.465171 
C 503.802875 532.704967 521.065202 506.870068 532.841739 478.438992 
C 544.618277 450.007916 550.68 419.533575 550.68 388.76 
M 316.3375 388.76 
C 316.3375 388.76 316.3375 388.76 316.3375 388.76 
C 316.3375 388.76 316.3375 388.76 316.3375 388.76 
C 316.3375 388.76 316.3375 388.76 316.3375 388.76 
C 316.3375 388.76 316.3375 388.76 316.3375 388.76 
C 316.3375 388.76 316.3375 388.76 316.3375 388.76 
C 316.3375 388.76 316.3375 388.76 316.3375 388.76 
C 316.3375 388.76 316.3375 388.76 316.3375 388.76 
C 316.3375 388.76 316.3375 388.76 316.3375 388.76 
C 316.3375 388.76 316.3375 388.76 316.3375 388.76 
C 316.3375 388.76 316.3375 388.76 316.3375 388.76 
C 316.3375 388.76 316.3375 388.76 316.3375 388.76 
C 316.3375 388.76 316.3375 388.76 316.3375 388.76 
C 316.3375 388.76 316.3375 388.76 316.3375 388.76 
C 316.3375 388.76 316.3375 388.76 316.3375 388.76 
C 316.3375 388.76 316.3375 388.76 316.3375 388.76 
C 316.3375 388.76 316.3375 388.76 316.3375 388.76 
z
"/>
  </clipPath>
 </defs>
</svg>
